<?xml version="1.0" encoding="UTF-8" standalone="no"?>
<!DOCTYPE svg PUBLIC "-//W3C//DTD SVG 1.1//EN" "http://www.w3.org/Graphics/SVG/1.1/DTD/svg11.dtd">
<svg xmlns="http://www.w3.org/2000/svg" version="1.1" viewBox="0.00 0.00 256.00 256.00">
<path fill="#6097E1" d="
  M 162.16 30.71
  C 162.35 23.97 162.25 17.23 161.86 10.50
  C 161.30 0.78 173.93 -1.63 173.97 8.97
  C 174.00 16.42 174.01 23.87 174.00 31.33
  C 174.00 31.62 174.14 31.78 174.43 31.81
  C 184.66 33.07 195.02 37.75 202.99 44.15
  C 203.25 44.36 203.62 44.33 203.84 44.09
  C 208.93 38.60 214.24 33.25 219.78 28.04
  C 226.70 21.54 233.86 30.20 229.43 34.93
  C 223.96 40.79 218.23 46.53 212.25 52.16
  C 211.76 52.62 211.68 53.38 212.08 53.94
  C 216.81 60.57 220.01 67.91 221.69 75.97
  C 222.02 77.55 222.01 79.64 222.94 81.59
  C 223.07 81.87 223.30 82.01 223.61 82.01
  C 229.11 81.99 247.72 80.65 251.58 83.40
  C 255.10 85.90 254.21 91.56 250.45 93.23
  C 249.27 93.76 247.27 94.01 244.45 94.00
  C 237.47 93.97 230.49 93.98 223.51 94.02
  C 223.18 94.02 222.89 94.25 222.80 94.57
  C 221.58 99.16 216.88 104.11 212.40 99.21
  C 211.54 98.28 211.09 96.92 211.05 95.13
  C 210.92 89.89 211.32 83.88 210.63 79.28
  C 207.62 59.32 189.33 43.33 169.25 42.84
  C 161.77 42.66 157.37 43.17 150.65 45.87
  C 146.43 47.56 141.72 48.11 140.26 42.99
  C 138.13 35.53 153.70 32.35 158.25 31.95
  C 159.70 31.82 160.78 31.68 161.49 31.53
  C 161.87 31.44 162.15 31.10 162.16 30.71
  Z"
/>
<path fill="#6097E1" d="
  M 17.68 155.62
  C 25.54 178.07 47.28 198.51 71.89 201.04
  C 73.60 201.22 75.15 202.00 76.83 202.00
  C 118.52 202.00 160.20 202.00 201.89 202.00
  C 206.34 202.00 210.03 201.59 212.95 200.77
  C 248.33 190.86 253.16 141.81 218.20 127.00
  C 200.07 119.32 180.91 125.81 169.78 142.03
  C 168.86 143.38 167.52 146.14 165.75 150.32
  C 163.20 156.36 154.79 155.15 154.56 149.20
  C 154.51 147.78 155.01 145.85 156.08 143.41
  C 162.60 128.45 176.46 115.89 193.23 113.17
  C 198.74 112.27 203.51 111.50 209.11 112.56
  C 212.25 113.15 215.53 113.47 217.71 114.24
  C 235.79 120.64 247.18 132.45 251.89 149.68
  C 259.47 177.41 242.52 205.84 214.55 212.35
  C 210.02 213.40 203.86 213.99 198.94 213.99
  C 160.63 214.00 122.31 214.00 84.00 214.01
  C 81.25 214.01 77.25 213.64 71.99 212.90
  C 39.72 208.37 13.77 185.40 5.11 154.25
  C 1.66 141.86 1.20 129.58 3.83 117.01
  C 12.03 77.82 45.93 51.58 85.89 51.95
  C 86.88 51.96 88.43 52.18 90.52 52.60
  C 92.65 53.03 94.87 52.89 96.79 53.27
  C 123.86 58.72 143.60 73.59 156.01 97.89
  C 157.86 101.50 159.05 105.60 155.46 108.17
  C 148.10 113.45 144.22 99.87 141.41 95.60
  C 127.94 75.10 106.07 63.06 81.52 63.71
  C 35.20 64.95 2.01 110.86 17.68 155.62
  Z"
/>
</svg>
